<svg version="1.1" id="Layer_1" xmlns="http://www.w3.org/2000/svg" xmlns:xlink="http://www.w3.org/1999/xlink" x="0px" y="0px"
	 width="100%" viewBox="0 0 1036 1036" enable-background="new 0 0 1036 1036" xml:space="preserve">
<path fill="#EC625C" opacity="1.000000" stroke="none" 
	d="
M1036.000000,1037.000000 
	C691.045166,1037.000000 346.090363,1037.000000 1.067767,1037.000000 
	C1.067767,691.757080 1.067767,346.514130 1.067767,1.000000 
	C345.697540,1.000000 690.395142,1.000000 1035.559937,1.453483 
	C1036.035889,99.368599 1036.055664,196.830231 1036.051270,294.291870 
	C1036.040039,541.861267 1036.017822,789.430603 1036.000000,1037.000000 
M400.274841,625.033203 
	C399.507019,625.072388 398.739166,625.111572 397.073242,625.035278 
	C378.831879,623.694214 375.309753,635.570862 378.364899,654.192871 
	C382.720032,654.192871 387.200348,654.353760 391.648895,654.049805 
	C392.484253,653.992676 393.192780,652.079285 394.099670,650.221985 
	C394.419586,646.685303 394.739502,643.148560 395.869598,639.750061 
	C397.235260,639.720947 398.600952,639.691772 400.799805,639.819519 
	C402.207886,639.746094 403.615967,639.672668 405.846771,639.756836 
	C407.235413,639.721130 408.624084,639.685425 410.938629,639.789917 
	C418.526917,639.789917 426.115234,639.789917 434.110626,639.789917 
	C434.110626,647.939270 434.246368,655.241699 433.983276,662.529724 
	C433.936890,663.814575 432.453949,665.351685 431.244751,666.244812 
	C414.392639,678.692871 397.457855,691.028992 380.599640,703.468811 
	C379.354156,704.387817 377.719055,705.856812 377.663910,707.130676 
	C377.371521,713.882507 377.526520,720.653748 377.526520,727.500977 
	C402.385406,727.500977 426.446259,727.500977 450.685883,727.500977 
	C450.685883,722.588684 450.685883,718.028442 450.685883,712.725586 
	C432.066162,712.725586 413.759003,712.725586 395.451874,712.725586 
	C396.574371,710.318481 397.989502,708.984009 399.543488,707.837952 
	C415.740601,695.892700 431.990784,684.018921 448.118011,671.980225 
	C449.480927,670.962830 450.836670,668.918335 450.878601,667.316467 
	C451.122406,657.998718 451.164368,648.665100 450.897003,639.347656 
	C450.664978,631.262573 444.561707,625.305725 436.488861,625.045166 
	C431.003845,624.868042 425.505493,625.106201 419.088715,625.030029 
	C414.709351,625.085999 410.329956,625.142029 405.140381,625.067017 
	C403.771729,625.099976 402.403107,625.132935 400.274841,625.033203 
M722.624695,304.949310 
	C722.546143,305.068268 722.375366,305.255096 722.404541,305.294800 
	C722.561279,305.507935 722.767700,305.684509 723.223999,306.528320 
	C724.114746,309.322784 724.157776,311.192261 720.186523,310.164856 
	C718.364197,309.693420 716.331238,310.036041 714.229126,309.084442 
	C714.205811,299.432678 714.263123,289.779938 714.143188,280.129364 
	C713.846497,256.266785 697.683533,240.077103 673.789490,240.032028 
	C621.368225,239.933121 568.946655,239.994659 516.525269,240.053925 
	C514.117676,240.056641 511.709656,240.950974 509.303741,240.941696 
	C505.881561,240.928513 502.461090,240.462296 498.204651,240.058853 
	C496.802704,240.088196 495.400757,240.117523 493.067261,240.037598 
	C454.087433,240.025421 415.107269,239.910248 376.127899,240.039810 
	C352.809753,240.117310 336.158356,256.427521 336.062164,279.559479 
	C335.864777,327.034424 336.026825,374.510864 335.938263,421.986450 
	C335.932678,424.980804 336.872437,426.293732 339.747223,427.267822 
	C357.405212,433.250916 375.651550,436.534149 394.147064,436.594727 
	C414.569092,436.661621 435.078674,435.816010 455.404449,433.856781 
	C493.313843,430.202606 529.831909,420.086548 565.679260,407.505219 
	C599.376038,395.678711 631.388367,380.280548 662.094177,362.446259 
	C664.089478,365.352692 666.084778,368.259125 667.897644,371.830658 
	C666.593750,372.832916 665.379700,373.988007 663.972656,374.814789 
	C636.784424,390.791901 608.673279,404.859100 579.030029,415.746490 
	C524.277466,435.856049 468.219330,449.322174 409.474579,449.288574 
	C385.215332,449.274689 361.249756,447.130127 337.953339,439.919647 
	C321.156708,434.720886 305.675751,427.069000 293.904449,413.619080 
	C277.371338,394.728302 276.511597,373.242645 285.263672,350.906372 
	C293.950104,328.737640 308.840912,310.814362 326.142487,294.868744 
	C329.868103,291.435120 330.692474,288.112366 329.337708,282.808807 
	C321.969818,288.543671 314.898926,293.760376 308.143097,299.357391 
	C283.804626,319.521088 262.067139,341.909668 249.268570,371.447510 
	C241.377930,389.658295 239.266006,408.271088 247.056839,427.247070 
	C255.027725,446.661560 270.316559,458.596069 288.446808,467.266479 
	C317.635864,481.225555 349.043640,484.863037 380.881287,485.455505 
	C422.978912,486.238892 464.203735,479.823914 504.756012,468.910919 
	C565.113159,452.668365 621.689697,428.186768 672.400024,391.123413 
	C694.600220,374.897614 714.692261,356.448792 730.428711,333.755432 
	C736.121643,325.545715 740.578552,316.478851 745.599487,307.803131 
	C745.207825,307.592560 744.816223,307.382019 744.424561,307.171448 
	C736.587524,315.361328 728.899963,323.702209 720.849121,331.676178 
	C716.940186,335.547821 712.350952,338.732605 708.041077,341.477417 
	C707.809204,340.269287 707.577332,339.061157 707.299683,337.614777 
	C705.407959,338.339417 703.969238,338.890472 701.863037,339.697235 
	C701.863037,336.969299 701.863037,334.770203 702.175537,332.080536 
	C703.090210,331.377075 704.004822,330.673615 705.495483,330.333496 
	C706.488159,331.207916 707.354431,332.353790 708.504822,332.889313 
	C710.004272,333.587311 712.083557,334.583221 713.274780,334.042938 
	C715.129700,333.201630 716.447266,331.175476 717.992615,329.651428 
	C717.711914,329.212738 717.431274,328.774017 717.150574,328.335327 
	C713.857849,329.365875 710.235779,332.176575 708.412903,326.586456 
	C710.238342,325.002502 712.063782,323.418579 714.122314,322.521851 
	C716.059143,325.937714 719.384033,326.701874 722.171326,324.828888 
	C724.266785,323.420837 725.746521,320.399048 726.429810,317.812805 
	C726.954285,315.827576 725.818054,313.638367 729.083923,313.035400 
	C740.374451,310.950958 740.570129,310.421509 735.633667,299.805786 
	C738.681763,298.504364 741.868713,297.450378 744.741821,295.837250 
	C748.132568,293.933380 750.274536,294.672211 752.696777,297.605316 
	C757.603699,303.547058 762.915100,309.154755 768.059753,314.900177 
	C768.499451,309.088715 768.222107,303.677124 767.444336,298.338409 
	C765.735718,286.610077 765.648132,286.662231 776.566895,282.033569 
	C781.896179,279.774384 787.154114,277.346924 793.651001,274.459290 
	C784.193726,272.362274 776.252319,270.522552 768.271545,268.873413 
	C765.375061,268.274933 764.247803,266.988159 764.062012,263.871063 
	C763.589172,255.937790 762.605530,248.034943 761.753784,239.383026 
	C760.537903,240.716858 759.634705,241.432236 759.083252,242.357315 
	C755.602295,248.197525 751.920349,253.944244 748.877441,260.009186 
	C747.114563,263.522614 744.945923,263.832520 741.648865,263.040222 
	C734.080750,261.221558 726.463928,259.605682 717.401917,257.580017 
	C719.445862,260.034332 720.534180,261.405548 721.689941,262.717255 
	C725.650330,267.212036 729.414978,271.909790 733.683289,276.092255 
	C736.736572,279.084076 736.332886,281.485352 734.352478,284.777710 
	C730.356262,291.421387 726.741882,298.294708 723.035889,305.017975 
	C723.035889,305.017975 723.054871,304.934113 722.624695,304.949310 
M671.980652,640.504883 
	C674.003113,645.545837 677.427429,649.026733 683.090576,651.121887 
	C682.942505,648.748596 682.847778,647.229736 682.745972,645.598450 
	C685.081055,645.135803 687.064331,644.742798 689.156555,644.328186 
	C686.855347,641.494202 684.961365,639.060059 682.956299,636.721191 
	C680.961548,634.394165 678.663818,633.760559 675.965332,635.710205 
	C674.771423,636.572937 673.439819,637.245056 672.045410,637.081116 
	C672.045410,633.159241 672.045410,629.237366 672.045410,625.322144 
	C645.811096,625.322144 620.403992,625.322144 594.866516,625.322144 
	C594.866516,630.225220 594.866516,634.792053 594.866516,639.950806 
	C605.023254,639.950806 614.769043,639.950806 625.051514,639.950806 
	C625.051514,669.449097 625.051514,698.352234 625.051514,727.848145 
	C629.214294,727.848145 632.869446,727.544312 636.452026,727.924133 
	C641.066223,728.413269 641.966858,726.464661 641.937012,722.232727 
	C641.758240,696.904419 641.848633,671.574341 641.848755,646.244812 
	C641.848755,644.303589 641.848755,642.362305 641.848755,639.759338 
	C652.308533,639.759338 662.094788,639.759338 671.980652,640.504883 
M469.519928,557.546265 
	C470.951141,557.484192 472.382385,557.422180 474.755035,557.429626 
	C478.489868,557.379517 482.224731,557.329407 486.564331,557.556152 
	C488.311829,557.493347 490.059296,557.430542 492.708984,557.445740 
	C533.474243,557.445740 574.239502,557.445740 615.004822,557.445740 
	C613.699951,555.162170 612.217529,554.123962 610.911438,552.898010 
	C601.458313,544.024902 590.648010,539.463562 577.358093,541.032776 
	C571.167297,541.763733 564.818604,541.157654 558.326660,541.157654 
	C558.326660,533.454102 558.326660,526.399170 558.326660,518.842468 
	C560.441467,518.842468 562.238098,518.842529 564.034668,518.842529 
	C599.697998,518.842407 635.361389,518.885193 671.024414,518.785889 
	C675.321350,518.773926 679.726074,518.461975 683.892944,517.486511 
	C702.609558,513.104919 714.067688,498.248535 714.136475,478.218872 
	C714.251465,444.722412 714.172424,411.225281 714.156433,377.728424 
	C714.155701,376.311920 713.967468,374.895508 713.808289,372.661194 
	C662.985657,419.849426 603.572693,450.418121 539.025024,471.708710 
	C474.286835,493.062164 408.149231,503.498352 339.532379,495.304474 
	C339.927032,496.478027 340.059082,497.135834 340.359161,497.705078 
	C340.900818,498.732605 341.516357,499.724304 342.147003,500.701324 
	C350.769348,514.060730 363.600861,518.863586 378.860382,518.851074 
	C414.357025,518.821960 449.853699,518.842102 485.350372,518.842346 
	C487.458466,518.842346 489.566528,518.842346 491.805939,518.842346 
	C491.805939,526.598938 491.805939,533.656982 491.805939,541.157654 
	C484.000397,541.157654 476.444031,541.919128 469.098663,540.998047 
	C454.129761,539.121033 444.923401,548.434448 434.181335,557.270569 
	C446.415100,557.270569 457.687408,557.270569 469.519928,557.546265 
M570.406982,723.945190 
	C572.193176,720.152161 575.448547,716.388916 575.526245,712.561096 
	C576.016541,688.414124 575.982971,664.250854 575.724731,640.097290 
	C575.629944,631.226440 569.408142,625.123718 560.907532,625.063171 
	C537.250854,624.894775 513.592163,625.004211 489.934296,625.023804 
	C489.303558,625.024353 488.673004,625.252258 487.467438,625.485229 
	C487.467438,629.312622 487.202637,633.135620 487.630859,636.879395 
	C487.757172,637.983521 489.752869,639.541016 491.047485,639.711853 
	C494.184631,640.125916 497.413300,639.846375 500.605103,639.846375 
	C500.863800,640.445435 501.122528,641.044556 501.381256,641.643616 
	C497.920410,644.749207 494.564789,647.983765 490.965515,650.919495 
	C488.097443,653.258850 487.336121,656.037720 487.362030,659.643311 
	C487.510651,680.301331 487.423798,700.960938 487.451630,721.620056 
	C487.454224,723.562500 487.698669,725.504761 487.829895,727.433289 
	C488.955292,727.616638 489.604340,727.814392 490.253571,727.815002 
	C513.744873,727.836365 537.237549,727.963013 560.725708,727.694031 
	C563.786011,727.658997 566.822876,725.574890 570.406982,723.945190 
M585.429504,790.760437 
	C586.489136,786.764221 587.548706,782.767944 588.608276,778.771729 
	C590.513000,782.485901 591.123047,786.083313 592.283264,789.493591 
	C592.675110,790.645752 594.454956,792.029236 595.610413,792.038330 
	C597.020264,792.049438 599.389221,791.001343 599.701904,789.931641 
	C601.677917,783.170654 603.199280,776.276733 604.870728,769.426697 
	C604.330444,769.194641 603.790161,768.962524 603.249878,768.730469 
	C595.752380,771.764099 600.291626,781.264404 595.219116,786.184021 
	C594.204041,781.993774 593.461731,778.092834 592.264648,774.336914 
	C591.653748,772.420166 590.226624,770.763550 589.168396,768.989380 
	C587.976074,770.821289 586.343872,772.508911 585.685242,774.515930 
	C584.408264,778.407104 583.678894,782.478027 582.722534,786.474426 
	C580.605408,781.590698 579.209656,776.841614 578.339600,771.998108 
	C577.723511,768.568665 576.044800,768.557068 573.130066,769.618286 
	C574.635559,775.634155 576.458008,781.480225 577.487305,787.462769 
	C578.383728,792.673523 580.927795,793.252014 585.429504,790.760437 
M674.904602,784.657837 
	C675.809082,785.511475 677.633972,786.655518 677.470825,787.172302 
	C676.277649,790.954407 678.619812,791.429138 681.304810,791.817383 
	C682.700195,792.019165 684.081665,792.317505 685.915894,792.654236 
	C685.387207,793.820129 685.095337,795.091370 684.762634,795.102112 
	C680.584839,795.237671 676.401184,795.191101 671.545044,795.191101 
	C672.113098,796.723938 672.464478,798.544128 672.838196,798.548706 
	C677.832703,798.610107 682.855713,798.639160 687.803040,798.075317 
	C688.651184,797.978638 689.860840,794.992859 689.661621,793.508423 
	C689.470886,792.087097 687.892578,790.482300 686.505920,789.689392 
	C684.950439,788.799866 682.925964,788.730591 679.940002,788.031677 
	C681.741455,786.570984 682.471008,785.485779 683.349060,785.348083 
	C688.809387,784.491821 689.524658,780.711365 689.491577,776.184631 
	C689.471191,773.397766 689.855286,770.607910 690.057800,767.819397 
	C687.262817,767.984314 684.469604,768.233765 681.672424,768.293091 
	C678.025513,768.370544 674.018188,767.849609 672.224609,772.024414 
	C670.348755,776.390625 670.174988,780.755981 674.904602,784.657837 
M508.068970,775.266907 
	C505.240875,775.749329 503.525330,775.020386 503.860016,771.684631 
	C504.025421,770.036255 503.817780,768.354126 503.890320,766.692078 
	C504.055603,762.903748 502.154724,762.656128 499.194336,763.684265 
	C499.194336,773.191956 499.194336,782.450012 499.194336,792.102234 
	C500.851349,792.017456 502.255981,791.945618 503.883301,791.862366 
	C503.883301,789.468811 503.883301,787.477051 503.883301,785.485291 
	C503.883301,783.405212 503.883301,781.325073 503.883301,778.973083 
	C506.334290,779.120361 507.942596,779.216980 509.424164,779.306030 
	C512.103149,789.345398 514.647461,792.431580 519.687378,791.555054 
	C518.673767,789.414001 517.966980,787.158203 516.667603,785.321594 
	C512.990234,780.124023 512.702881,775.157532 516.548767,769.879272 
	C517.809143,768.149414 518.305786,765.863037 519.151672,763.831177 
	C518.660217,763.387268 518.168701,762.943420 517.677246,762.499573 
	C516.163940,763.694153 514.211731,764.609131 513.233459,766.144531 
	C511.479553,768.897400 510.311279,772.023376 508.068970,775.266907 
M665.025085,779.476379 
	C665.025085,773.390137 665.025085,767.303894 665.025085,761.274353 
	C657.476013,760.293945 661.456726,766.300598 659.612183,768.641968 
	C645.810852,769.233826 645.569336,769.893188 645.651794,783.311279 
	C645.704102,791.819519 650.473999,794.101990 658.602966,792.303528 
	C660.551025,791.872559 662.560669,791.720154 665.025085,791.371216 
	C665.025085,788.044678 665.025085,784.254089 665.025085,779.476379 
M341.247742,766.327271 
	C340.508789,765.229797 339.986603,763.525574 338.983582,763.167236 
	C337.164307,762.517273 335.061035,762.546387 333.072174,762.508179 
	C326.635773,762.384521 324.121613,764.524231 323.777252,770.259033 
	C323.389343,776.719055 325.131256,778.737244 331.891632,779.639587 
	C333.831055,779.898438 335.773926,780.131409 337.690948,780.373230 
	C337.690948,783.257568 337.690948,785.809082 337.690948,789.018738 
	C332.997009,788.782776 328.735229,788.568604 324.375854,788.349487 
	C322.556793,791.059387 324.203705,791.945740 326.720947,792.504822 
	C335.024780,794.349121 342.007416,792.157471 343.049896,787.323364 
	C344.724976,779.555847 342.693970,777.672119 329.304749,774.687561 
	C329.304749,772.170227 329.304749,769.624268 329.304749,766.840515 
	C333.335419,766.840515 336.968689,766.840515 341.247742,766.327271 
M359.638245,772.239624 
	C362.722778,771.853882 363.191193,773.642273 363.140350,776.179077 
	C363.037506,781.309143 363.109680,786.442810 363.109680,791.869324 
	C364.930573,791.869324 366.334625,791.869324 368.038086,791.869324 
	C368.038086,787.611206 368.038055,783.628723 368.038055,779.646179 
	C368.037994,768.432312 366.318634,767.112305 355.076050,769.657776 
	C354.846375,769.709778 354.542450,769.433960 354.189453,769.272888 
	C354.065796,766.847595 353.940887,764.398621 353.816010,761.949585 
	C353.361267,761.647095 352.906525,761.344604 352.451782,761.042053 
	C351.438049,762.301086 349.590698,763.531738 349.546722,764.823730 
	C349.274658,772.814392 349.483734,780.819885 349.372620,788.818237 
	C349.323486,792.354309 350.988678,792.659790 353.624481,791.783691 
	C353.773773,791.461975 353.896729,791.319397 353.898499,791.175354 
	C353.952637,786.678528 354.184296,782.172852 353.978699,777.687317 
	C353.816467,774.147400 355.061371,772.293457 359.638245,772.239624 
M543.184021,790.357544 
	C543.198364,786.034058 543.223206,781.710632 543.224792,777.387146 
	C543.227783,769.164124 540.541260,767.136658 532.584839,769.099182 
	C530.225098,769.681213 527.747742,769.786438 525.022095,770.150513 
	C525.022095,776.923157 525.022095,784.342834 525.022095,791.701111 
	C527.937012,792.745972 529.388916,792.157654 529.263794,788.977905 
	C529.133118,785.656982 529.209351,782.326965 529.231201,779.001160 
	C529.275391,772.295959 531.055176,771.094482 538.380371,773.307800 
	C538.380371,778.264954 538.402222,783.390137 538.373108,788.515015 
	C538.351685,792.297546 539.715515,793.461182 543.184021,790.357544 
M393.225372,786.965271 
	C393.170197,782.805664 393.550049,778.573669 392.874390,774.517395 
	C392.541931,772.521423 390.517242,769.661316 388.798920,769.283936 
	C385.355621,768.527649 381.576721,769.029785 377.981659,769.424805 
	C377.091125,769.522705 376.373993,771.198425 374.670166,773.230591 
	C377.750244,772.896057 379.045441,772.675842 380.346771,772.630371 
	C383.237061,772.529480 387.403046,770.500610 388.109192,774.972900 
	C388.921631,780.118225 384.124207,778.062988 381.681885,778.418640 
	C375.268616,779.352722 372.956482,782.599976 374.895111,788.653625 
	C376.110352,792.448425 380.819092,793.626770 386.480408,791.829102 
	C388.293365,791.253357 390.321655,791.355774 392.960785,791.071533 
	C392.997101,790.620483 393.111023,789.205933 393.225372,786.965271 
M707.978638,792.254822 
	C708.807312,792.182129 709.780090,792.358032 710.431824,791.980164 
	C711.490173,791.366394 712.338196,790.389954 713.274963,789.566589 
	C712.084290,789.232544 710.905090,788.680725 709.700195,788.617432 
	C708.056091,788.531067 706.394165,788.849670 704.736816,788.936768 
	C700.530396,789.157654 699.426758,787.173340 700.805847,783.321228 
	C703.804321,782.941772 706.966064,783.095764 709.627258,782.016113 
	C711.499390,781.256714 713.453186,779.034058 714.003784,777.079712 
	C714.790833,774.286011 714.701477,771.000916 711.227905,769.350830 
	C707.586121,767.620911 699.929810,768.685364 697.625610,771.246887 
	C695.009155,774.155640 694.219055,784.823669 696.528625,789.009521 
	C698.940247,793.380554 703.157715,792.652222 707.978638,792.254822 
M431.805542,788.117737 
	C429.504669,788.392273 427.209839,788.744751 424.901581,788.924194 
	C420.809998,789.242126 419.389099,787.403015 420.757416,783.308167 
	C423.655090,782.951843 426.806580,783.105591 429.482635,782.051819 
	C431.378815,781.305176 433.533905,779.137085 433.979279,777.231079 
	C434.825714,773.608643 434.559418,769.832703 429.440887,768.902710 
	C422.278473,767.601318 416.934875,769.294739 416.179688,774.162964 
	C415.480743,778.668640 415.687164,783.422119 416.286072,787.962158 
	C416.489868,789.506958 418.960022,791.656860 420.642212,791.914673 
	C424.172638,792.455811 427.881500,792.060303 431.477417,791.676758 
	C431.961487,791.625061 432.215790,789.419006 431.805542,788.117737 
M549.961426,782.312378 
	C550.275269,784.254883 550.295593,786.304871 550.959900,788.119080 
	C552.713013,792.906738 556.973389,792.660034 560.965149,792.553162 
	C564.545532,792.457275 568.493347,792.005188 569.062744,787.647339 
	C569.652405,783.135376 569.463440,778.469177 569.090515,773.913391 
	C568.966125,772.393738 567.546753,770.427002 566.165771,769.654419 
	C558.122864,765.155029 550.096558,769.839844 549.959167,778.915283 
	C549.946594,779.744568 549.960022,780.574219 549.961426,782.312378 
M633.777466,782.438660 
	C637.168884,782.118591 639.779968,780.538940 639.407471,776.907898 
	C639.149597,774.394897 638.324646,770.864258 636.539490,769.772705 
	C629.353882,765.378540 621.549377,769.638306 620.771667,777.892700 
	C620.618042,779.523438 620.620117,781.187073 620.737427,782.822083 
	C621.330505,791.090759 623.904480,793.276184 632.086487,792.526001 
	C633.240356,792.420105 634.482849,792.426453 635.506287,791.976196 
	C636.684265,791.457886 637.664490,790.489990 638.730591,789.717285 
	C637.404968,789.326599 636.097778,788.718201 634.748718,788.604126 
	C633.288330,788.480530 631.788940,788.932434 630.306458,788.932922 
	C625.718567,788.934509 625.126404,787.996155 626.578491,783.122498 
	C628.669739,782.947083 630.802673,782.768127 633.777466,782.438660 
M479.318024,767.036621 
	C480.470215,766.466858 481.622375,765.897095 482.774567,765.327332 
	C481.735352,764.593933 480.725586,763.281982 479.651855,763.227295 
	C475.020050,762.991699 470.359131,762.957764 465.733185,763.243958 
	C464.617157,763.312988 463.594177,764.885437 462.528442,765.766479 
	C462.833679,766.138062 463.138947,766.509644 463.444183,766.881226 
	C465.551147,767.007812 467.658112,767.134399 470.404358,767.299377 
	C470.404358,774.469543 470.492004,781.387756 470.366211,788.302124 
	C470.306305,791.594421 471.283356,793.035645 475.039642,791.592468 
	C475.039642,784.709167 475.118317,777.773193 474.998505,770.840698 
	C474.954376,768.285645 475.358490,766.559509 479.318024,767.036621 
M609.098877,784.331970 
	C609.119507,786.153442 608.845825,788.047485 609.270874,789.769104 
	C609.526367,790.804199 610.737854,792.040222 611.761902,792.330017 
	C612.860596,792.640930 614.243225,791.948608 615.501953,791.694031 
	C615.152893,790.620300 614.700928,789.567200 614.480286,788.467712 
	C614.191833,787.030762 613.942810,785.558594 613.926453,784.098877 
	C613.848389,777.143738 613.865540,770.187622 613.806030,763.232178 
	C613.802368,762.801758 613.433350,762.374512 613.133484,761.728760 
	C611.850708,761.904846 610.591797,762.077637 609.098877,762.282532 
	C609.098877,769.483215 609.098877,776.430237 609.098877,784.331970 
M458.025146,781.458130 
	C458.025146,775.526917 458.025146,769.595703 458.025146,763.733276 
	C454.247864,762.467041 453.035034,763.652222 453.099945,767.030457 
	C453.252838,774.985168 453.206787,782.943665 453.268890,790.900391 
	C453.270996,791.165527 453.572449,791.428284 453.964050,792.066467 
	C455.128510,792.001099 456.498566,791.924194 458.025146,791.838501 
	C458.025146,788.398376 458.025146,785.418274 458.025146,781.458130 
M411.281982,772.845032 
	C411.360718,771.575684 411.439484,770.306396 411.582001,768.009583 
	C408.848236,769.683655 407.199921,770.693054 405.552032,771.695679 
	C404.460480,770.736450 403.368927,769.777161 401.484161,768.120850 
	C401.484161,776.756042 401.484161,784.239258 401.484161,791.703491 
	C404.573334,792.783142 406.143402,792.158081 405.929077,788.726379 
	C405.773773,786.240295 406.134003,783.709412 405.848419,781.246826 
	C405.381470,777.220093 406.686035,774.477600 411.281982,772.845032 
M687.689758,629.462463 
	C687.825989,628.166077 687.962280,626.869629 688.098572,625.573242 
	C687.518311,625.321350 686.938110,625.069458 686.357849,624.817566 
	C685.075134,626.976135 682.230103,630.424927 682.769775,631.078369 
	C685.697144,634.622803 689.262756,637.788147 693.138245,640.250305 
	C693.757446,640.643677 697.056030,636.819641 699.115967,634.945312 
	C698.768616,634.615906 698.421265,634.286499 698.073975,633.957092 
	C696.060730,634.610352 694.047485,635.263611 692.034241,635.916809 
	C692.034241,634.228271 692.034241,632.539734 692.034241,630.824646 
	C690.611938,630.549072 689.235413,630.282288 687.689758,629.462463 
z"/>
<path fill="#E3E7E8" opacity="1.000000" stroke="none" 
	d="
M1036.500000,1037.000000 
	C1036.017822,789.430603 1036.040039,541.861267 1036.051270,294.291870 
	C1036.055664,196.830231 1036.035889,99.368599 1036.013550,1.453482 
	C1036.333374,1.166665 1036.943848,1.315913 1036.955566,1.502788 
	C1037.039062,2.830877 1037.000000,4.166667 1037.000000,5.500000 
	C1037.000000,349.333344 1037.000000,693.166687 1036.500000,1037.000000 
z"/>
<path fill="#E9E9E9" opacity="1.000000" stroke="none" 
	d="
M704.919495,329.970123 
	C704.004822,330.673615 703.090210,331.377075 701.704956,332.481873 
	C688.124573,342.505859 675.014771,352.128479 661.904968,361.751099 
	C631.388367,380.280548 599.376038,395.678711 565.679260,407.505219 
	C529.831909,420.086548 493.313843,430.202606 455.404449,433.856781 
	C435.078674,435.816010 414.569092,436.661621 394.147064,436.594727 
	C375.651550,436.534149 357.405212,433.250916 339.747223,427.267822 
	C336.872437,426.293732 335.932678,424.980804 335.938263,421.986450 
	C336.026825,374.510864 335.864777,327.034424 336.062164,279.559479 
	C336.158356,256.427521 352.809753,240.117310 376.127899,240.039810 
	C415.107269,239.910248 454.087433,240.025421 493.533356,240.525024 
	C494.024780,242.831848 493.426575,245.005325 494.213989,246.391998 
	C495.571747,248.783142 497.413116,251.496811 499.746307,252.583450 
	C502.565430,253.896439 505.811249,253.189575 508.031403,250.051346 
	C509.871399,247.450439 509.673309,245.350586 507.119812,243.797012 
	C505.970703,243.097931 504.253693,243.332306 502.794373,243.143127 
	C502.962982,245.000824 503.131592,246.858536 503.373810,249.527542 
	C502.282532,249.281006 500.489899,249.337067 499.293854,248.519928 
	C495.614899,246.006531 497.842865,243.021759 499.039886,240.189621 
	C502.461090,240.462296 505.881561,240.928513 509.303741,240.941696 
	C511.709656,240.950974 514.117676,240.056641 516.525269,240.053925 
	C568.946655,239.994659 621.368225,239.933121 673.789490,240.032028 
	C697.683533,240.077103 713.846497,256.266785 714.143188,280.129364 
	C714.263123,289.779938 714.205811,299.432678 714.225586,309.941467 
	C714.259888,311.869232 714.297729,312.940002 714.249512,314.419739 
	C714.219177,316.215393 714.274963,317.602112 714.240356,319.337524 
	C714.063049,320.402374 713.976135,321.118500 713.889221,321.834625 
	C712.063782,323.418579 710.238342,325.002502 707.950378,326.975708 
	C706.631714,328.233307 705.775574,329.101715 704.919495,329.970123 
M411.294189,345.069946 
	C410.117920,345.633545 408.955719,346.229279 407.761353,346.751465 
	C406.630310,347.245911 405.465485,347.663086 404.315521,348.114227 
	C404.276428,346.783630 404.209198,345.453033 404.209442,344.122437 
	C404.209564,343.387634 404.322815,342.652802 404.393860,341.814178 
	C402.636566,342.054443 401.272797,342.240875 399.603760,342.469086 
	C400.231659,340.563507 400.701874,339.136566 401.238342,337.508545 
	C395.643585,338.201965 392.958038,341.634338 395.371490,344.662445 
	C397.430908,347.246246 399.848022,349.631897 402.465942,351.636261 
	C403.377594,352.334259 405.889771,352.218719 406.753082,351.447357 
	C408.793335,349.624481 410.282654,347.184937 412.753113,344.980652 
	C416.937408,344.492218 419.322571,342.429993 419.805878,337.438080 
	C413.622986,340.873505 413.622986,340.873505 413.149506,333.717957 
	C411.663177,334.242157 410.243134,334.743011 408.108307,335.495911 
	C408.995117,333.082275 409.606262,331.418915 410.353271,329.385681 
	C403.534637,331.786499 402.665253,334.947968 406.990479,339.500031 
	C408.700165,341.299377 410.337158,343.167816 411.294189,345.069946 
M427.346375,329.148529 
	C424.681000,330.919128 422.549622,330.429565 420.411560,328.014587 
	C418.719055,326.102905 416.538116,324.623596 414.574066,322.952301 
	C414.026276,323.522217 413.478516,324.092163 412.930725,324.662079 
	C414.995361,326.987122 416.958710,329.412689 419.145844,331.616150 
	C423.614502,336.118225 424.818420,335.993805 429.382812,330.412170 
	C430.989014,328.714783 432.355377,326.652283 434.256287,325.403503 
	C437.296722,323.406097 439.102509,321.199799 438.679810,317.317169 
	C438.529907,315.940216 439.526489,314.438416 440.866425,313.004456 
	C442.849182,312.892181 445.300598,313.460052 446.697479,312.497528 
	C448.492584,311.260590 449.985687,308.932770 450.525116,306.800690 
	C450.795837,305.730530 448.855499,303.150879 447.575287,302.884033 
	C446.049103,302.565948 444.158752,303.995300 441.532867,305.014221 
	C443.897949,306.688599 445.072235,307.519928 446.246490,308.351288 
	C446.029785,308.852783 445.813049,309.354309 445.596344,309.855804 
	C443.999817,309.302795 441.267426,309.058868 441.017212,308.139496 
	C440.229309,305.244049 440.373199,302.095062 440.156891,299.051086 
	C436.016876,299.536530 434.529755,302.448578 435.622223,309.492493 
	C435.057922,309.793579 434.277954,310.502502 433.961395,310.335083 
	C428.432678,307.411469 425.365417,311.205688 423.060791,314.927826 
	C420.531036,319.013580 424.715881,321.316254 426.684357,324.199188 
	C427.564331,325.487946 427.580994,327.366211 427.346375,329.148529 
M461.487366,292.280579 
	C458.381409,286.922424 454.666687,284.720093 451.016418,286.032196 
	C446.656555,287.599365 445.346832,290.822510 446.176849,295.097046 
	C446.898193,298.811890 451.412140,302.118286 454.971985,301.692230 
	C459.538940,301.145630 461.616333,298.467712 461.487366,292.280579 
M466.672455,290.766479 
	C470.899536,290.163574 473.266418,287.012421 472.585205,283.514496 
	C472.008240,280.551910 469.487335,277.144745 466.851318,275.614258 
	C463.536804,273.689880 459.639496,274.948975 457.226837,278.460602 
	C454.785156,282.014404 458.223267,283.522614 459.989288,285.407623 
	C461.787964,287.327484 463.957581,288.899780 466.672455,290.766479 
M387.465393,357.962952 
	C389.688171,359.755371 391.910919,361.547821 394.133667,363.340271 
	C394.499512,362.937134 394.865326,362.533997 395.231171,362.130890 
	C394.757904,360.693573 394.284637,359.256256 393.714233,357.523895 
	C395.245789,357.315796 396.366577,357.187439 397.478699,357.005890 
	C398.668640,356.811646 399.850403,356.567261 401.449799,356.267059 
	C399.317719,353.998962 397.419373,352.397430 396.042847,350.430695 
	C392.893433,345.930969 390.930450,345.417236 386.786011,348.498108 
	C383.131439,351.214813 383.165283,353.053406 387.465393,357.962952 
M487.867676,259.712891 
	C486.357452,260.117279 484.847229,260.521667 482.838501,261.059540 
	C483.071228,258.790802 483.225037,257.291809 483.378815,255.792816 
	C482.859741,255.495636 482.340668,255.198456 481.821625,254.901276 
	C480.578461,256.801758 478.272125,258.705841 478.278534,260.602112 
	C478.304474,268.296967 485.178467,263.022095 488.430298,265.166168 
	C487.387299,266.918884 486.501526,268.407379 485.412994,270.236542 
	C489.765472,271.266174 491.411774,268.572662 492.290253,265.868469 
	C493.276184,262.833466 492.016907,260.356720 487.867676,259.712891 
M471.437439,266.182159 
	C467.066559,270.648865 467.058838,271.470276 471.386475,275.883667 
	C472.433258,276.951141 473.339691,278.347717 474.614471,278.951752 
	C476.223877,279.714386 478.654785,280.690063 479.814178,280.010071 
	C481.663147,278.925598 482.755463,276.551056 484.167694,274.722015 
	C477.329102,276.760620 477.329102,276.760620 477.257233,269.691956 
	C475.727203,270.245361 474.315430,270.756012 471.642395,271.722900 
	C472.829193,269.450470 473.528625,268.268951 473.987885,267.000488 
	C474.036621,266.865936 472.677490,266.221619 471.437439,266.182159 
M374.466858,363.165558 
	C377.655090,367.007599 380.241760,371.633545 385.546997,372.693481 
	C385.309021,369.027557 385.111267,365.981415 384.905457,362.811096 
	C383.401825,362.959686 381.711853,363.126709 379.295074,363.365540 
	C380.103851,361.113373 380.670654,359.534973 381.354248,357.631317 
	C377.189575,357.042206 375.590149,359.476105 374.466858,363.165558 
z"/>
<path fill="#E9E8E8" opacity="1.000000" stroke="none" 
	d="
M485.959564,557.279297 
	C482.224731,557.329407 478.489868,557.379517 474.269104,557.051697 
	C473.483429,555.810364 473.183655,554.946960 472.883850,554.083557 
	C471.575775,555.145874 470.267731,556.208191 468.959656,557.270569 
	C457.687408,557.270569 446.415100,557.270569 434.181335,557.270569 
	C444.923401,548.434448 454.129761,539.121033 469.098663,540.998047 
	C476.444031,541.919128 484.000397,541.157654 491.805939,541.157654 
	C491.805939,533.656982 491.805939,526.598938 491.805939,518.842346 
	C489.566528,518.842346 487.458466,518.842346 485.350372,518.842346 
	C449.853699,518.842102 414.357025,518.821960 378.860382,518.851074 
	C363.600861,518.863586 350.769348,514.060730 342.147003,500.701324 
	C341.516357,499.724304 340.900818,498.732605 340.359161,497.705078 
	C340.059082,497.135834 339.927032,496.478027 339.532379,495.304474 
	C408.149231,503.498352 474.286835,493.062164 539.025024,471.708710 
	C603.572693,450.418121 662.985657,419.849426 713.808289,372.661194 
	C713.967468,374.895508 714.155701,376.311920 714.156433,377.728424 
	C714.172424,411.225281 714.251465,444.722412 714.136475,478.218872 
	C714.067688,498.248535 702.609558,513.104919 683.892944,517.486511 
	C679.726074,518.461975 675.321350,518.773926 671.024414,518.785889 
	C635.361389,518.885193 599.697998,518.842407 564.034668,518.842529 
	C562.238098,518.842529 560.441467,518.842468 558.326660,518.842468 
	C558.326660,526.399170 558.326660,533.454102 558.326660,541.157654 
	C564.818604,541.157654 571.167297,541.763733 577.358093,541.032776 
	C590.648010,539.463562 601.458313,544.024902 610.911438,552.898010 
	C612.217529,554.123962 613.699951,555.162170 615.004822,557.445740 
	C574.239502,557.445740 533.474243,557.445740 492.244080,556.949219 
	C491.919495,549.244324 491.919495,549.244324 482.740753,548.363831 
	C482.887573,546.887207 483.033966,545.414978 483.232391,543.419373 
	C479.645355,544.676331 477.484589,546.446960 478.573883,549.829529 
	C479.707123,553.348633 482.661774,553.088623 485.636414,552.270203 
	C486.825928,551.942932 488.110138,551.960022 489.351257,551.820374 
	C489.499725,552.213989 489.648163,552.607605 489.796631,553.001160 
	C488.517609,554.427246 487.238586,555.853271 485.959564,557.279297 
M529.652832,499.871735 
	C525.465332,499.438904 520.099915,503.703156 520.415955,507.212860 
	C520.740417,510.816406 524.803284,515.000977 528.647461,515.611450 
	C532.305115,516.192322 534.928223,514.495972 536.176514,511.263306 
	C537.789001,507.087585 535.834473,503.877136 532.483276,501.387207 
	C531.823303,500.896851 531.038208,500.574738 529.652832,499.871735 
M531.482849,493.781677 
	C532.763550,498.461090 538.275024,503.731171 542.433289,504.062164 
	C542.306641,502.525330 542.183044,501.025787 542.059387,499.525391 
	C544.280884,499.107300 546.123840,498.760437 548.535706,498.306488 
	C546.811890,496.327881 545.483154,494.924530 544.291321,493.413300 
	C539.614685,487.483551 536.743042,487.403961 531.482849,493.781677 
M519.494690,523.066650 
	C516.781616,520.486877 514.068604,517.907104 511.355560,515.327332 
	C511.005737,515.669128 510.655914,516.010925 510.306091,516.352722 
	C510.934052,517.889587 511.561981,519.426453 512.216553,521.028564 
	C509.154510,521.169861 506.483673,521.293091 503.812836,521.416321 
	C503.532745,521.976318 503.252655,522.536377 502.972595,523.096375 
	C506.325867,526.447937 509.679169,529.799500 513.032471,533.151123 
	C513.469788,532.794556 513.907166,532.437988 514.344482,532.081421 
	C513.838135,530.333984 513.331787,528.586548 512.705078,526.423950 
	C514.821716,526.616882 516.557861,527.177185 518.009399,526.756287 
	C518.877502,526.504578 519.300110,524.716309 519.494690,523.066650 
M552.849060,484.812622 
	C553.592346,485.239136 554.335632,485.665680 555.078979,486.092224 
	C554.964417,486.571075 554.849854,487.049927 554.735229,487.528748 
	C553.002136,487.297760 550.999023,487.546112 549.584412,486.749451 
	C544.525391,483.900238 549.414307,480.205902 549.452209,476.798096 
	C544.728027,478.033905 543.509155,479.843048 544.056702,484.297668 
	C544.572449,488.494293 547.983215,491.098511 552.506592,491.011566 
	C556.593689,490.933014 558.755005,488.288269 559.270569,484.956726 
	C559.457275,483.750092 556.474854,482.053040 554.938477,480.579773 
	C554.066528,481.901093 553.194580,483.222443 552.849060,484.812622 
M508.086853,537.840820 
	C510.766815,534.631104 508.772614,532.388000 506.099030,531.145996 
	C504.987183,530.629395 502.950745,532.103027 500.431610,532.989380 
	C502.896698,534.678040 503.986053,535.424255 505.075409,536.170471 
	C504.955292,536.639343 504.835144,537.108215 504.715027,537.577087 
	C502.972351,537.316589 500.966156,537.521729 499.534607,536.711487 
	C494.487579,533.854858 499.532867,530.156982 498.545624,526.406738 
	C496.540375,527.967896 494.720703,529.766052 494.169464,531.892944 
	C493.239960,535.479431 494.886688,538.627563 498.225159,540.161499 
	C501.545563,541.687195 505.039185,541.800476 508.086853,537.840820 
z"/>
<path fill="#4140E0" opacity="1.000000" stroke="none" 
	d="
M708.069702,342.228302 
	C712.350952,338.732605 716.940186,335.547821 720.849121,331.676178 
	C728.899963,323.702209 736.587524,315.361328 744.424561,307.171448 
	C744.816223,307.382019 745.207825,307.592560 745.599487,307.803131 
	C740.578552,316.478851 736.121643,325.545715 730.428711,333.755432 
	C714.692261,356.448792 694.600220,374.897614 672.400024,391.123413 
	C621.689697,428.186768 565.113159,452.668365 504.756012,468.910919 
	C464.203735,479.823914 422.978912,486.238892 380.881287,485.455505 
	C349.043640,484.863037 317.635864,481.225555 288.446808,467.266479 
	C270.316559,458.596069 255.027725,446.661560 247.056839,427.247070 
	C239.266006,408.271088 241.377930,389.658295 249.268570,371.447510 
	C262.067139,341.909668 283.804626,319.521088 308.143097,299.357391 
	C314.898926,293.760376 321.969818,288.543671 329.337708,282.808807 
	C330.692474,288.112366 329.868103,291.435120 326.142487,294.868744 
	C308.840912,310.814362 293.950104,328.737640 285.263672,350.906372 
	C276.511597,373.242645 277.371338,394.728302 293.904449,413.619080 
	C305.675751,427.069000 321.156708,434.720886 337.953339,439.919647 
	C361.249756,447.130127 385.215332,449.274689 409.474579,449.288574 
	C468.219330,449.322174 524.277466,435.856049 579.030029,415.746490 
	C608.673279,404.859100 636.784424,390.791901 663.972656,374.814789 
	C665.379700,373.988007 666.593750,372.832916 668.355591,371.481934 
	C679.898621,363.156097 690.983704,355.179016 702.407898,347.160675 
	C703.537842,346.426697 704.328674,345.733978 705.393799,344.926056 
	C706.468567,343.950012 707.269104,343.089142 708.069702,342.228302 
z"/>
<path fill="#E9E6E6" opacity="1.000000" stroke="none" 
	d="
M570.138794,724.192505 
	C566.822876,725.574890 563.786011,727.658997 560.725708,727.694031 
	C537.237549,727.963013 513.744873,727.836365 490.253571,727.815002 
	C489.604340,727.814392 488.955292,727.616638 487.829895,727.433289 
	C487.698669,725.504761 487.454224,723.562500 487.451630,721.620056 
	C487.423798,700.960938 487.510651,680.301331 487.362030,659.643311 
	C487.336121,656.037720 488.097443,653.258850 490.965515,650.919495 
	C494.564789,647.983765 497.920410,644.749207 501.381256,641.643616 
	C501.122528,641.044556 500.863800,640.445435 500.605103,639.846375 
	C497.413300,639.846375 494.184631,640.125916 491.047485,639.711853 
	C489.752869,639.541016 487.757172,637.983521 487.630859,636.879395 
	C487.202637,633.135620 487.467438,629.312622 487.467438,625.485229 
	C488.673004,625.252258 489.303558,625.024353 489.934296,625.023804 
	C513.592163,625.004211 537.250854,624.894775 560.907532,625.063171 
	C569.408142,625.123718 575.629944,631.226440 575.724731,640.097290 
	C575.982971,664.250854 576.016541,688.414124 575.526245,712.561096 
	C575.448547,716.388916 572.193176,720.152161 570.138794,724.192505 
M558.990540,687.500000 
	C558.990540,671.744934 558.990540,655.989929 558.990540,640.310425 
	C540.330933,640.310425 522.455994,640.310425 504.626770,640.310425 
	C504.626770,668.592834 504.626770,696.411621 504.626770,724.923462 
	C506.089386,723.650940 507.150299,723.040466 507.779968,722.131287 
	C513.407593,714.006287 521.179626,712.054016 530.687561,712.827881 
	C539.901428,713.577820 549.224121,712.990540 558.990540,712.990540 
	C558.990540,704.413940 558.990540,696.456970 558.990540,687.500000 
z"/>
<path fill="#E9E6E6" opacity="1.000000" stroke="none" 
	d="
M420.013123,625.158691 
	C425.505493,625.106201 431.003845,624.868042 436.488861,625.045166 
	C444.561707,625.305725 450.664978,631.262573 450.897003,639.347656 
	C451.164368,648.665100 451.122406,657.998718 450.878601,667.316467 
	C450.836670,668.918335 449.480927,670.962830 448.118011,671.980225 
	C431.990784,684.018921 415.740601,695.892700 399.543488,707.837952 
	C397.989502,708.984009 396.574371,710.318481 395.451874,712.725586 
	C413.759003,712.725586 432.066162,712.725586 450.685883,712.725586 
	C450.685883,718.028442 450.685883,722.588684 450.685883,727.500977 
	C426.446259,727.500977 402.385406,727.500977 377.526520,727.500977 
	C377.526520,720.653748 377.371521,713.882507 377.663910,707.130676 
	C377.719055,705.856812 379.354156,704.387817 380.599640,703.468811 
	C397.457855,691.028992 414.392639,678.692871 431.244751,666.244812 
	C432.453949,665.351685 433.936890,663.814575 433.983276,662.529724 
	C434.246368,655.241699 434.110626,647.939270 434.110626,639.789917 
	C426.115234,639.789917 418.526917,639.789917 410.513306,639.374329 
	C411.706329,636.906067 413.403198,634.909546 414.922516,632.786011 
	C416.700165,630.301392 418.323059,627.706055 420.013123,625.158691 
z"/>
<path fill="#E9E7E6" opacity="1.000000" stroke="none" 
	d="
M671.881104,639.759338 
	C662.094788,639.759338 652.308533,639.759338 641.848755,639.759338 
	C641.848755,642.362305 641.848755,644.303589 641.848755,646.244812 
	C641.848633,671.574341 641.758240,696.904419 641.937012,722.232727 
	C641.966858,726.464661 641.066223,728.413269 636.452026,727.924133 
	C632.869446,727.544312 629.214294,727.848145 625.051514,727.848145 
	C625.051514,698.352234 625.051514,669.449097 625.051514,639.950806 
	C614.769043,639.950806 605.023254,639.950806 594.866516,639.950806 
	C594.866516,634.792053 594.866516,630.225220 594.866516,625.322144 
	C620.403992,625.322144 645.811096,625.322144 672.045410,625.322144 
	C672.045410,629.237366 672.045410,633.159241 672.034058,637.830322 
	C671.975525,638.972778 671.928284,639.366028 671.881104,639.759338 
z"/>
<path fill="#4340DA" opacity="1.000000" stroke="none" 
	d="
M722.970032,305.073303 
	C726.741882,298.294708 730.356262,291.421387 734.352478,284.777710 
	C736.332886,281.485352 736.736572,279.084076 733.683289,276.092255 
	C729.414978,271.909790 725.650330,267.212036 721.689941,262.717255 
	C720.534180,261.405548 719.445862,260.034332 717.401917,257.580017 
	C726.463928,259.605682 734.080750,261.221558 741.648865,263.040222 
	C744.945923,263.832520 747.114563,263.522614 748.877441,260.009186 
	C751.920349,253.944244 755.602295,248.197525 759.083252,242.357315 
	C759.634705,241.432236 760.537903,240.716858 761.753784,239.383026 
	C762.605530,248.034943 763.589172,255.937790 764.062012,263.871063 
	C764.247803,266.988159 765.375061,268.274933 768.271545,268.873413 
	C776.252319,270.522552 784.193726,272.362274 793.651001,274.459290 
	C787.154114,277.346924 781.896179,279.774384 776.566895,282.033569 
	C765.648132,286.662231 765.735718,286.610077 767.444336,298.338409 
	C768.222107,303.677124 768.499451,309.088715 768.059753,314.900177 
	C762.915100,309.154755 757.603699,303.547058 752.696777,297.605316 
	C750.274536,294.672211 748.132568,293.933380 744.741821,295.837250 
	C741.868713,297.450378 738.681763,298.504364 734.979919,300.085449 
	C730.540771,301.934509 726.755432,303.503906 722.970032,305.073303 
z"/>
<path fill="#E2605C" opacity="1.000000" stroke="none" 
	d="
M708.055420,341.852844 
	C707.269104,343.089142 706.468567,343.950012 705.052368,344.962891 
	C703.647339,345.810577 702.858032,346.506256 702.068726,347.201904 
	C690.983704,355.179016 679.898621,363.156097 668.446777,371.149353 
	C666.084778,368.259125 664.089478,365.352692 661.999573,362.098663 
	C675.014771,352.128479 688.124573,342.505859 701.548706,332.727173 
	C701.863037,334.770203 701.863037,336.969299 701.863037,339.697235 
	C703.969238,338.890472 705.407959,338.339417 707.299683,337.614777 
	C707.577332,339.061157 707.809204,340.269287 708.055420,341.852844 
z"/>
<path fill="#4C43D7" opacity="1.000000" stroke="none" 
	d="
M585.266479,791.098328 
	C580.927795,793.252014 578.383728,792.673523 577.487305,787.462769 
	C576.458008,781.480225 574.635559,775.634155 573.130066,769.618286 
	C576.044800,768.557068 577.723511,768.568665 578.339600,771.998108 
	C579.209656,776.841614 580.605408,781.590698 582.722534,786.474426 
	C583.678894,782.478027 584.408264,778.407104 585.685242,774.515930 
	C586.343872,772.508911 587.976074,770.821289 589.168396,768.989380 
	C590.226624,770.763550 591.653748,772.420166 592.264648,774.336914 
	C593.461731,778.092834 594.204041,781.993774 595.219116,786.184021 
	C600.291626,781.264404 595.752380,771.764099 603.249878,768.730469 
	C603.790161,768.962524 604.330444,769.194641 604.870728,769.426697 
	C603.199280,776.276733 601.677917,783.170654 599.701904,789.931641 
	C599.389221,791.001343 597.020264,792.049438 595.610413,792.038330 
	C594.454956,792.029236 592.675110,790.645752 592.283264,789.493591 
	C591.123047,786.083313 590.513000,782.485901 588.608276,778.771729 
	C587.548706,782.767944 586.489136,786.764221 585.266479,791.098328 
z"/>
<path fill="#E9E6E6" opacity="1.000000" stroke="none" 
	d="
M399.966614,639.662598 
	C398.600952,639.691772 397.235260,639.720947 395.415039,639.339172 
	C393.785034,635.230835 391.499908,634.167847 387.787292,636.210449 
	C387.046967,637.272644 386.516663,638.119568 385.694000,639.115723 
	C385.325684,640.680237 384.614960,642.705322 385.285553,643.403320 
	C387.942200,646.168579 391.031158,648.518616 393.959839,651.022522 
	C393.192780,652.079285 392.484253,653.992676 391.648895,654.049805 
	C387.200348,654.353760 382.720032,654.192871 378.364899,654.192871 
	C375.309753,635.570862 378.831879,623.694214 397.397827,625.393066 
	C393.685608,629.049011 393.620850,632.156311 397.836823,635.499329 
	C398.948303,636.380676 399.277924,638.248047 399.966614,639.662598 
z"/>
<path fill="#5144D3" opacity="1.000000" stroke="none" 
	d="
M674.580261,784.463684 
	C670.174988,780.755981 670.348755,776.390625 672.224609,772.024414 
	C674.018188,767.849609 678.025513,768.370544 681.672424,768.293091 
	C684.469604,768.233765 687.262817,767.984314 690.057800,767.819397 
	C689.855286,770.607910 689.471191,773.397766 689.491577,776.184631 
	C689.524658,780.711365 688.809387,784.491821 683.349060,785.348083 
	C682.471008,785.485779 681.741455,786.570984 679.940002,788.031677 
	C682.925964,788.730591 684.950439,788.799866 686.505920,789.689392 
	C687.892578,790.482300 689.470886,792.087097 689.661621,793.508423 
	C689.860840,794.992859 688.651184,797.978638 687.803040,798.075317 
	C682.855713,798.639160 677.832703,798.610107 672.838196,798.548706 
	C672.464478,798.544128 672.113098,796.723938 671.545044,795.191101 
	C676.401184,795.191101 680.584839,795.237671 684.762634,795.102112 
	C685.095337,795.091370 685.387207,793.820129 685.915894,792.654236 
	C684.081665,792.317505 682.700195,792.019165 681.304810,791.817383 
	C678.619812,791.429138 676.277649,790.954407 677.470825,787.172302 
	C677.633972,786.655518 675.809082,785.511475 674.580261,784.463684 
M684.946533,775.473389 
	C685.482239,770.210144 681.410339,771.158569 679.017212,771.857178 
	C673.167969,773.564636 676.866272,778.227783 676.101685,781.610474 
	C684.473206,782.704041 684.721558,782.545898 684.946533,775.473389 
z"/>
<path fill="#4C43D7" opacity="1.000000" stroke="none" 
	d="
M508.483612,775.130127 
	C510.311279,772.023376 511.479553,768.897400 513.233459,766.144531 
	C514.211731,764.609131 516.163940,763.694153 517.677246,762.499573 
	C518.168701,762.943420 518.660217,763.387268 519.151672,763.831177 
	C518.305786,765.863037 517.809143,768.149414 516.548767,769.879272 
	C512.702881,775.157532 512.990234,780.124023 516.667603,785.321594 
	C517.966980,787.158203 518.673767,789.414001 519.687378,791.555054 
	C514.647461,792.431580 512.103149,789.345398 509.424164,779.306030 
	C507.942596,779.216980 506.334290,779.120361 503.883301,778.973083 
	C503.883301,781.325073 503.883301,783.405212 503.883301,785.485291 
	C503.883301,787.477051 503.883301,789.468811 503.883301,791.862366 
	C502.255981,791.945618 500.851349,792.017456 499.194336,792.102234 
	C499.194336,782.450012 499.194336,773.191956 499.194336,763.684265 
	C502.154724,762.656128 504.055603,762.903748 503.890320,766.692078 
	C503.817780,768.354126 504.025421,770.036255 503.860016,771.684631 
	C503.525330,775.020386 505.240875,775.749329 508.483612,775.130127 
z"/>
<path fill="#4842DA" opacity="1.000000" stroke="none" 
	d="
M665.025085,779.969910 
	C665.025085,784.254089 665.025085,788.044678 665.025085,791.371216 
	C662.560669,791.720154 660.551025,791.872559 658.602966,792.303528 
	C650.473999,794.101990 645.704102,791.819519 645.651794,783.311279 
	C645.569336,769.893188 645.810852,769.233826 659.612183,768.641968 
	C661.456726,766.300598 657.476013,760.293945 665.025085,761.274353 
	C665.025085,767.303894 665.025085,773.390137 665.025085,779.969910 
M660.179321,778.589233 
	C660.074402,776.524658 659.969421,774.460083 659.853027,772.171082 
	C657.400391,772.171082 655.489075,771.815979 653.810120,772.287781 
	C652.555664,772.640320 650.738708,773.994751 650.661621,775.015503 
	C650.318909,779.551575 650.513000,784.128174 650.513000,788.591980 
	C660.176025,789.607117 660.176086,789.607117 660.179504,781.038391 
	C660.179688,780.541260 660.179443,780.044189 660.179321,778.589233 
z"/>
<path fill="#5144D3" opacity="1.000000" stroke="none" 
	d="
M340.924835,766.583862 
	C336.968689,766.840515 333.335419,766.840515 329.304749,766.840515 
	C329.304749,769.624268 329.304749,772.170227 329.304749,774.687561 
	C342.693970,777.672119 344.724976,779.555847 343.049896,787.323364 
	C342.007416,792.157471 335.024780,794.349121 326.720947,792.504822 
	C324.203705,791.945740 322.556793,791.059387 324.375854,788.349487 
	C328.735229,788.568604 332.997009,788.782776 337.690948,789.018738 
	C337.690948,785.809082 337.690948,783.257568 337.690948,780.373230 
	C335.773926,780.131409 333.831055,779.898438 331.891632,779.639587 
	C325.131256,778.737244 323.389343,776.719055 323.777252,770.259033 
	C324.121613,764.524231 326.635773,762.384521 333.072174,762.508179 
	C335.061035,762.546387 337.164307,762.517273 338.983582,763.167236 
	C339.986603,763.525574 340.508789,765.229797 340.924835,766.583862 
z"/>
<path fill="#4C43D7" opacity="1.000000" stroke="none" 
	d="
M359.158051,772.243408 
	C355.061371,772.293457 353.816467,774.147400 353.978699,777.687317 
	C354.184296,782.172852 353.952637,786.678528 353.898499,791.175354 
	C353.896729,791.319397 353.773773,791.461975 353.624481,791.783691 
	C350.988678,792.659790 349.323486,792.354309 349.372620,788.818237 
	C349.483734,780.819885 349.274658,772.814392 349.546722,764.823730 
	C349.590698,763.531738 351.438049,762.301086 352.451782,761.042053 
	C352.906525,761.344604 353.361267,761.647095 353.816010,761.949585 
	C353.940887,764.398621 354.065796,766.847595 354.189453,769.272888 
	C354.542450,769.433960 354.846375,769.709778 355.076050,769.657776 
	C366.318634,767.112305 368.037994,768.432312 368.038055,779.646179 
	C368.038055,783.628723 368.038086,787.611206 368.038086,791.869324 
	C366.334625,791.869324 364.930573,791.869324 363.109680,791.869324 
	C363.109680,786.442810 363.037506,781.309143 363.140350,776.179077 
	C363.191193,773.642273 362.722778,771.853882 359.158051,772.243408 
z"/>
<path fill="#4C43D7" opacity="1.000000" stroke="none" 
	d="
M543.121216,790.733154 
	C539.715515,793.461182 538.351685,792.297546 538.373108,788.515015 
	C538.402222,783.390137 538.380371,778.264954 538.380371,773.307800 
	C531.055176,771.094482 529.275391,772.295959 529.231201,779.001160 
	C529.209351,782.326965 529.133118,785.656982 529.263794,788.977905 
	C529.388916,792.157654 527.937012,792.745972 525.022095,791.701111 
	C525.022095,784.342834 525.022095,776.923157 525.022095,770.150513 
	C527.747742,769.786438 530.225098,769.681213 532.584839,769.099182 
	C540.541260,767.136658 543.227783,769.164124 543.224792,777.387146 
	C543.223206,781.710632 543.198364,786.034058 543.121216,790.733154 
z"/>
<path fill="#4C43D7" opacity="1.000000" stroke="none" 
	d="
M393.225159,787.378296 
	C393.111023,789.205933 392.997101,790.620483 392.960785,791.071533 
	C390.321655,791.355774 388.293365,791.253357 386.480408,791.829102 
	C380.819092,793.626770 376.110352,792.448425 374.895111,788.653625 
	C372.956482,782.599976 375.268616,779.352722 381.681885,778.418640 
	C384.124207,778.062988 388.921631,780.118225 388.109192,774.972900 
	C387.403046,770.500610 383.237061,772.529480 380.346771,772.630371 
	C379.045441,772.675842 377.750244,772.896057 374.670166,773.230591 
	C376.373993,771.198425 377.091125,769.522705 377.981659,769.424805 
	C381.576721,769.029785 385.355621,768.527649 388.798920,769.283936 
	C390.517242,769.661316 392.541931,772.521423 392.874390,774.517395 
	C393.550049,778.573669 393.170197,782.805664 393.225159,787.378296 
M378.989227,788.843750 
	C380.806946,788.892517 382.628052,788.887695 384.441620,789.002075 
	C387.498627,789.194763 388.456177,787.656067 388.490997,784.788086 
	C388.525940,781.912720 387.275330,781.131531 384.590485,781.121887 
	C379.121124,781.102295 377.932678,782.330933 378.989227,788.843750 
z"/>
<path fill="#4C43D7" opacity="1.000000" stroke="none" 
	d="
M707.562988,792.305908 
	C703.157715,792.652222 698.940247,793.380554 696.528625,789.009521 
	C694.219055,784.823669 695.009155,774.155640 697.625610,771.246887 
	C699.929810,768.685364 707.586121,767.620911 711.227905,769.350830 
	C714.701477,771.000916 714.790833,774.286011 714.003784,777.079712 
	C713.453186,779.034058 711.499390,781.256714 709.627258,782.016113 
	C706.966064,783.095764 703.804321,782.941772 700.805847,783.321228 
	C699.426758,787.173340 700.530396,789.157654 704.736816,788.936768 
	C706.394165,788.849670 708.056091,788.531067 709.700195,788.617432 
	C710.905090,788.680725 712.084290,789.232544 713.274963,789.566589 
	C712.338196,790.389954 711.490173,791.366394 710.431824,791.980164 
	C709.780090,792.358032 708.807312,792.182129 707.562988,792.305908 
M709.136353,772.394958 
	C707.319946,772.351501 705.217590,771.720154 703.765686,772.426208 
	C702.246460,773.165039 700.776428,775.029053 700.315186,776.687683 
	C699.561646,779.397400 701.644714,779.795593 703.921570,779.864014 
	C710.005371,780.046875 710.487000,779.553162 709.136353,772.394958 
z"/>
<path fill="#4C43D7" opacity="1.000000" stroke="none" 
	d="
M432.191040,788.164124 
	C432.215790,789.419006 431.961487,791.625061 431.477417,791.676758 
	C427.881500,792.060303 424.172638,792.455811 420.642212,791.914673 
	C418.960022,791.656860 416.489868,789.506958 416.286072,787.962158 
	C415.687164,783.422119 415.480743,778.668640 416.179688,774.162964 
	C416.934875,769.294739 422.278473,767.601318 429.440887,768.902710 
	C434.559418,769.832703 434.825714,773.608643 433.979279,777.231079 
	C433.533905,779.137085 431.378815,781.305176 429.482635,782.051819 
	C426.806580,783.105591 423.655090,782.951843 420.757416,783.308167 
	C419.389099,787.403015 420.809998,789.242126 424.901581,788.924194 
	C427.209839,788.744751 429.504669,788.392273 432.191040,788.164124 
M424.030701,772.214844 
	C419.977997,772.518799 419.042145,775.804871 420.608643,778.089355 
	C421.655579,779.616028 425.865631,780.211975 427.929413,779.389893 
	C429.434723,778.790283 429.748383,775.199036 430.877533,772.181885 
	C427.819061,772.181885 426.347076,772.181885 424.030701,772.214844 
z"/>
<path fill="#4C43D7" opacity="1.000000" stroke="none" 
	d="
M549.961365,781.858032 
	C549.960022,780.574219 549.946594,779.744568 549.959167,778.915283 
	C550.096558,769.839844 558.122864,765.155029 566.165771,769.654419 
	C567.546753,770.427002 568.966125,772.393738 569.090515,773.913391 
	C569.463440,778.469177 569.652405,783.135376 569.062744,787.647339 
	C568.493347,792.005188 564.545532,792.457275 560.965149,792.553162 
	C556.973389,792.660034 552.713013,792.906738 550.959900,788.119080 
	C550.295593,786.304871 550.275269,784.254883 549.961365,781.858032 
M559.639404,772.204224 
	C558.061707,773.164856 555.262939,773.975159 555.122803,775.112854 
	C554.586975,779.464294 554.906250,783.921021 554.906250,788.786560 
	C557.722351,788.786560 559.919495,789.118530 561.937927,788.661499 
	C563.140564,788.389160 564.888489,786.940674 564.967407,785.911804 
	C565.304199,781.518616 565.110718,777.084839 565.110718,772.474670 
	C563.129700,772.354980 561.831665,772.276550 559.639404,772.204224 
z"/>
<path fill="#4C43D7" opacity="1.000000" stroke="none" 
	d="
M633.356506,782.513916 
	C630.802673,782.768127 628.669739,782.947083 626.578491,783.122498 
	C625.126404,787.996155 625.718567,788.934509 630.306458,788.932922 
	C631.788940,788.932434 633.288330,788.480530 634.748718,788.604126 
	C636.097778,788.718201 637.404968,789.326599 638.730591,789.717285 
	C637.664490,790.489990 636.684265,791.457886 635.506287,791.976196 
	C634.482849,792.426453 633.240356,792.420105 632.086487,792.526001 
	C623.904480,793.276184 621.330505,791.090759 620.737427,782.822083 
	C620.620117,781.187073 620.618042,779.523438 620.771667,777.892700 
	C621.549377,769.638306 629.353882,765.378540 636.539490,769.772705 
	C638.324646,770.864258 639.149597,774.394897 639.407471,776.907898 
	C639.779968,780.538940 637.168884,782.118591 633.356506,782.513916 
M634.627319,772.500610 
	C627.809631,771.482971 623.359375,772.138245 626.497864,779.538757 
	C635.243591,780.335327 635.847961,779.886047 634.627319,772.500610 
z"/>
<path fill="#E15E59" opacity="1.000000" stroke="none" 
	d="
M723.002930,305.045654 
	C726.755432,303.503906 730.540771,301.934509 734.667175,300.295227 
	C740.570129,310.421509 740.374451,310.950958 729.083923,313.035400 
	C725.818054,313.638367 726.954285,315.827576 726.429810,317.812805 
	C725.746521,320.399048 724.266785,323.420837 722.171326,324.828888 
	C719.384033,326.701874 716.059143,325.937714 714.005737,322.178223 
	C713.976135,321.118500 714.063049,320.402374 714.547119,319.450439 
	C717.138000,319.719086 719.331726,320.223541 721.525513,320.727997 
	C721.761597,319.524048 722.585815,317.986145 722.126465,317.177032 
	C720.582397,314.458008 718.439514,312.324432 714.815857,313.874207 
	C714.664062,313.939117 714.496033,313.966095 714.335571,314.010773 
	C714.297729,312.940002 714.259888,311.869232 714.307922,310.403992 
	C716.331238,310.036041 718.364197,309.693420 720.186523,310.164856 
	C724.157776,311.192261 724.114746,309.322784 723.126343,305.967285 
	C723.028625,305.406219 723.054871,304.934113 723.054871,304.934113 
	C723.054871,304.934113 723.035889,305.017975 723.002930,305.045654 
z"/>
<path fill="#4C43D7" opacity="1.000000" stroke="none" 
	d="
M478.880798,767.038330 
	C475.358490,766.559509 474.954376,768.285645 474.998505,770.840698 
	C475.118317,777.773193 475.039642,784.709167 475.039642,791.592468 
	C471.283356,793.035645 470.306305,791.594421 470.366211,788.302124 
	C470.492004,781.387756 470.404358,774.469543 470.404358,767.299377 
	C467.658112,767.134399 465.551147,767.007812 463.444183,766.881226 
	C463.138947,766.509644 462.833679,766.138062 462.528442,765.766479 
	C463.594177,764.885437 464.617157,763.312988 465.733185,763.243958 
	C470.359131,762.957764 475.020050,762.991699 479.651855,763.227295 
	C480.725586,763.281982 481.735352,764.593933 482.774536,765.327271 
	C481.622375,765.897095 480.470215,766.466858 478.880798,767.038330 
z"/>
<path fill="#5144D3" opacity="1.000000" stroke="none" 
	d="
M609.098877,783.854614 
	C609.098877,776.430237 609.098877,769.483215 609.098877,762.282532 
	C610.591797,762.077637 611.850708,761.904846 613.133484,761.728760 
	C613.433350,762.374512 613.802368,762.801758 613.806030,763.232178 
	C613.865540,770.187622 613.848389,777.143738 613.926453,784.098877 
	C613.942810,785.558594 614.191833,787.030762 614.480286,788.467712 
	C614.700928,789.567200 615.152893,790.620300 615.501953,791.694092 
	C614.243225,791.948608 612.860596,792.640930 611.761902,792.330017 
	C610.737854,792.040222 609.526367,790.804199 609.270874,789.769104 
	C608.845825,788.047485 609.119507,786.153442 609.098877,783.854614 
z"/>
<path fill="#E15E59" opacity="1.000000" stroke="none" 
	d="
M671.930847,640.132080 
	C671.928284,639.366028 671.975525,638.972778 672.096741,638.291565 
	C673.439819,637.245056 674.771423,636.572937 675.965332,635.710205 
	C678.663818,633.760559 680.961548,634.394165 682.956299,636.721191 
	C684.961365,639.060059 686.855347,641.494202 689.156555,644.328186 
	C687.064331,644.742798 685.081055,645.135803 682.745972,645.598450 
	C682.847778,647.229736 682.942505,648.748596 683.090576,651.121887 
	C677.427429,649.026733 674.003113,645.545837 671.930847,640.132080 
z"/>
<path fill="#4842DA" opacity="1.000000" stroke="none" 
	d="
M458.025146,781.948181 
	C458.025146,785.418274 458.025146,788.398376 458.025146,791.838501 
	C456.498566,791.924194 455.128510,792.001099 453.964050,792.066467 
	C453.572449,791.428284 453.270996,791.165527 453.268890,790.900391 
	C453.206787,782.943665 453.252838,774.985168 453.099945,767.030457 
	C453.035034,763.652222 454.247864,762.467041 458.025146,763.733276 
	C458.025146,769.595703 458.025146,775.526917 458.025146,781.948181 
z"/>
<path fill="#5144D3" opacity="1.000000" stroke="none" 
	d="
M410.963623,773.022827 
	C406.686035,774.477600 405.381470,777.220093 405.848419,781.246826 
	C406.134003,783.709412 405.773773,786.240295 405.929077,788.726379 
	C406.143402,792.158081 404.573334,792.783142 401.484161,791.703491 
	C401.484161,784.239258 401.484161,776.756042 401.484161,768.120850 
	C403.368927,769.777161 404.460480,770.736450 405.551819,771.699097 
	C407.199921,770.693054 408.848236,769.683655 411.582001,768.009583 
	C411.439484,770.306396 411.360718,771.575684 410.963623,773.022827 
z"/>
<path fill="#DDDDDD" opacity="1.000000" stroke="none" 
	d="
M498.622253,240.124237 
	C497.842865,243.021759 495.614899,246.006531 499.293854,248.519928 
	C500.489899,249.337067 502.282532,249.281006 503.373810,249.527542 
	C503.131592,246.858536 502.962982,245.000824 502.794373,243.143127 
	C504.253693,243.332306 505.970703,243.097931 507.119812,243.797012 
	C509.673309,245.350586 509.871399,247.450439 508.031403,250.051346 
	C505.811249,253.189575 502.565430,253.896439 499.746307,252.583450 
	C497.413116,251.496811 495.571747,248.783142 494.213989,246.391998 
	C493.426575,245.005325 494.024780,242.831848 493.999146,240.579651 
	C495.400757,240.117523 496.802704,240.088196 498.622253,240.124237 
z"/>
<path fill="#DDDDDD" opacity="1.000000" stroke="none" 
	d="
M419.550903,625.094360 
	C418.323059,627.706055 416.700165,630.301392 414.922516,632.786011 
	C413.403198,634.909546 411.706329,636.906067 410.050354,639.304199 
	C408.624084,639.685425 407.235413,639.721130 405.432953,639.354919 
	C405.009857,638.306824 405.000580,637.660583 405.267517,636.832458 
	C407.237823,635.141663 408.931854,633.632874 410.659760,632.093872 
	C408.888794,629.500549 407.419708,627.349304 405.950592,625.197998 
	C410.329956,625.142029 414.709351,625.085999 419.550903,625.094360 
z"/>
<path fill="#E15E59" opacity="1.000000" stroke="none" 
	d="
M687.774353,629.739014 
	C689.235413,630.282288 690.611938,630.549072 692.034241,630.824646 
	C692.034241,632.539734 692.034241,634.228271 692.034241,635.916809 
	C694.047485,635.263611 696.060730,634.610352 698.073975,633.957092 
	C698.421265,634.286499 698.768616,634.615906 699.115967,634.945312 
	C697.056030,636.819641 693.757446,640.643677 693.138245,640.250305 
	C689.262756,637.788147 685.697144,634.622803 682.769775,631.078369 
	C682.230103,630.424927 685.075134,626.976135 686.357849,624.817566 
	C686.938110,625.069458 687.518311,625.321350 688.098572,625.573242 
	C687.962280,626.869629 687.825989,628.166077 687.774353,629.739014 
z"/>
<path fill="#E4BEBC" opacity="1.000000" stroke="none" 
	d="
M486.261963,557.417725 
	C487.238586,555.853271 488.517609,554.427246 489.796631,553.001160 
	C489.648163,552.607605 489.499725,552.213989 489.351257,551.820374 
	C488.110138,551.960022 486.825928,551.942932 485.636414,552.270203 
	C482.661774,553.088623 479.707123,553.348633 478.573883,549.829529 
	C477.484589,546.446960 479.645355,544.676331 483.232391,543.419373 
	C483.033966,545.414978 482.887573,546.887207 482.740753,548.363831 
	C491.919495,549.244324 491.919495,549.244324 491.792999,556.910278 
	C490.059296,557.430542 488.311829,557.493347 486.261963,557.417725 
z"/>
<path fill="#DED8D7" opacity="1.000000" stroke="none" 
	d="
M387.997314,635.995117 
	C391.499908,634.167847 393.785034,635.230835 395.009949,639.270081 
	C394.739502,643.148560 394.419586,646.685303 394.029755,650.622253 
	C391.031158,648.518616 387.942200,646.168579 385.285553,643.403320 
	C384.614960,642.705322 385.325684,640.680237 385.920166,639.358276 
	C387.809082,640.358459 389.179474,641.265259 390.549835,642.172058 
	C390.969849,641.523438 391.897217,640.544922 391.725586,640.280884 
	C390.777863,638.822815 389.565826,637.535828 388.431244,636.201294 
	C388.336639,636.090027 388.144257,636.061890 387.997314,635.995117 
z"/>
<path fill="#DED8D7" opacity="1.000000" stroke="none" 
	d="
M404.991333,637.014404 
	C405.000580,637.660583 405.009857,638.306824 405.021606,639.276123 
	C403.615967,639.672668 402.207886,639.746094 400.383209,639.741089 
	C399.277924,638.248047 398.948303,636.380676 397.836823,635.499329 
	C393.620850,632.156311 393.685608,629.049011 397.846893,625.450806 
	C398.739166,625.111572 399.507019,625.072388 400.555389,625.410645 
	C400.097473,627.174438 399.359009,628.560913 398.399689,630.361938 
	C400.409149,630.624695 401.918671,630.822144 402.556763,630.905579 
	C403.535126,633.360474 404.263214,635.187439 404.991333,637.014404 
z"/>
<path fill="#E9E6E6" opacity="1.000000" stroke="none" 
	d="
M405.267548,636.832458 
	C404.263214,635.187439 403.535126,633.360474 402.556763,630.905579 
	C401.918671,630.822144 400.409149,630.624695 398.399689,630.361938 
	C399.359009,628.560913 400.097473,627.174438 400.935181,625.476929 
	C402.403107,625.132935 403.771729,625.099976 405.545471,625.132507 
	C407.419708,627.349304 408.888794,629.500549 410.659760,632.093872 
	C408.931854,633.632874 407.237823,635.141663 405.267548,636.832458 
z"/>
<path fill="#E15E59" opacity="1.000000" stroke="none" 
	d="
M705.207520,330.151794 
	C705.775574,329.101715 706.631714,328.233307 707.776062,327.256165 
	C710.235779,332.176575 713.857849,329.365875 717.150574,328.335327 
	C717.431274,328.774017 717.711914,329.212738 717.992615,329.651428 
	C716.447266,331.175476 715.129700,333.201630 713.274780,334.042938 
	C712.083557,334.583221 710.004272,333.587311 708.504822,332.889313 
	C707.354431,332.353790 706.488159,331.207916 705.207520,330.151794 
z"/>
<path fill="#E4BEBC" opacity="1.000000" stroke="none" 
	d="
M469.239807,557.408447 
	C470.267731,556.208191 471.575775,555.145874 472.883850,554.083557 
	C473.183655,554.946960 473.483429,555.810364 473.798401,557.016968 
	C472.382385,557.422180 470.951141,557.484192 469.239807,557.408447 
z"/>
<path fill="#4340DA" opacity="1.000000" stroke="none" 
	d="
M722.839783,304.941711 
	C723.054871,304.934113 723.028625,305.406219 722.992798,305.639954 
	C722.767700,305.684509 722.561279,305.507935 722.404541,305.294800 
	C722.375366,305.255096 722.546143,305.068268 722.839783,304.941711 
z"/>
<path fill="#E0E0E0" opacity="1.000000" stroke="none" 
	d="
M439.999695,312.993622 
	C439.526489,314.438416 438.529907,315.940216 438.679810,317.317169 
	C439.102509,321.199799 437.296722,323.406097 434.256287,325.403503 
	C432.355377,326.652283 430.989014,328.714783 429.064545,330.450867 
	C428.494019,329.985382 428.241760,329.481140 427.989471,328.976929 
	C427.580994,327.366211 427.564331,325.487946 426.684357,324.199188 
	C424.715881,321.316254 420.531036,319.013580 423.060791,314.927826 
	C425.365417,311.205688 428.432678,307.411469 433.961395,310.335083 
	C434.277954,310.502502 435.057922,309.793579 436.078186,309.417725 
	C437.689362,310.559875 438.844513,311.776733 439.999695,312.993622 
z"/>
<path fill="#E0E0E0" opacity="1.000000" stroke="none" 
	d="
M461.595642,292.647369 
	C461.616333,298.467712 459.538940,301.145630 454.971985,301.692230 
	C451.412140,302.118286 446.898193,298.811890 446.176849,295.097046 
	C445.346832,290.822510 446.656555,287.599365 451.016418,286.032196 
	C454.666687,284.720093 458.381409,286.922424 461.595642,292.647369 
z"/>
<path fill="#E0E0E0" opacity="1.000000" stroke="none" 
	d="
M466.318604,290.695374 
	C463.957581,288.899780 461.787964,287.327484 459.989288,285.407623 
	C458.223267,283.522614 454.785156,282.014404 457.226837,278.460602 
	C459.639496,274.948975 463.536804,273.689880 466.851318,275.614258 
	C469.487335,277.144745 472.008240,280.551910 472.585205,283.514496 
	C473.266418,287.012421 470.899536,290.163574 466.318604,290.695374 
z"/>
<path fill="#DDDDDD" opacity="1.000000" stroke="none" 
	d="
M387.208130,357.704529 
	C383.165283,353.053406 383.131439,351.214813 386.786011,348.498108 
	C390.930450,345.417236 392.893433,345.930969 396.042847,350.430695 
	C397.419373,352.397430 399.317719,353.998962 401.449799,356.267059 
	C399.850403,356.567261 398.668640,356.811646 397.478699,357.005890 
	C396.366577,357.187439 395.245789,357.315796 393.714233,357.523895 
	C394.284637,359.256256 394.757904,360.693573 395.231171,362.130890 
	C394.865326,362.533997 394.499512,362.937134 394.133667,363.340271 
	C391.910919,361.547821 389.688171,359.755371 387.208130,357.704529 
z"/>
<path fill="#DDDDDD" opacity="1.000000" stroke="none" 
	d="
M440.433044,312.999023 
	C438.844513,311.776733 437.689362,310.559875 436.267700,309.171509 
	C434.529755,302.448578 436.016876,299.536530 440.156891,299.051086 
	C440.373199,302.095062 440.229309,305.244049 441.017212,308.139496 
	C441.267426,309.058868 443.999817,309.302795 445.596344,309.855804 
	C445.813049,309.354309 446.029785,308.852783 446.246490,308.351288 
	C445.072235,307.519928 443.897949,306.688599 441.532867,305.014221 
	C444.158752,303.995300 446.049103,302.565948 447.575287,302.884033 
	C448.855499,303.150879 450.795837,305.730530 450.525116,306.800690 
	C449.985687,308.932770 448.492584,311.260590 446.697479,312.497528 
	C445.300598,313.460052 442.849182,312.892181 440.433044,312.999023 
z"/>
<path fill="#DDDDDD" opacity="1.000000" stroke="none" 
	d="
M411.994751,344.994751 
	C410.282654,347.184937 408.793335,349.624481 406.753082,351.447357 
	C405.889771,352.218719 403.377594,352.334259 402.465942,351.636261 
	C399.848022,349.631897 397.430908,347.246246 395.371490,344.662445 
	C392.958038,341.634338 395.643585,338.201965 401.238342,337.508545 
	C400.701874,339.136566 400.231659,340.563507 399.603760,342.469086 
	C401.272797,342.240875 402.636566,342.054443 404.393860,341.814178 
	C404.322815,342.652802 404.209564,343.387634 404.209442,344.122437 
	C404.209198,345.453033 404.276428,346.783630 404.315521,348.114258 
	C405.465485,347.663086 406.630310,347.245911 407.761353,346.751465 
	C408.955719,346.229279 410.117920,345.633545 411.647095,345.034973 
	C412.000000,345.000000 411.994751,344.994751 411.994751,344.994751 
z"/>
<path fill="#DDDDDD" opacity="1.000000" stroke="none" 
	d="
M488.204071,259.651978 
	C492.016907,260.356720 493.276184,262.833466 492.290253,265.868469 
	C491.411774,268.572662 489.765472,271.266174 485.412994,270.236542 
	C486.501526,268.407379 487.387299,266.918884 488.430298,265.166168 
	C485.178467,263.022095 478.304474,268.296967 478.278534,260.602112 
	C478.272125,258.705841 480.578461,256.801758 481.821625,254.901276 
	C482.340668,255.198456 482.859741,255.495636 483.378815,255.792816 
	C483.225037,257.291809 483.071228,258.790802 482.838501,261.059540 
	C484.847229,260.521667 486.357452,260.117279 488.204071,259.651978 
z"/>
<path fill="#DDDDDD" opacity="1.000000" stroke="none" 
	d="
M471.704468,265.997986 
	C472.677490,266.221619 474.036621,266.865936 473.987885,267.000488 
	C473.528625,268.268951 472.829193,269.450470 471.642395,271.722900 
	C474.315430,270.756012 475.727203,270.245361 477.257233,269.691956 
	C477.329102,276.760620 477.329102,276.760620 484.167694,274.722015 
	C482.755463,276.551056 481.663147,278.925598 479.814178,280.010071 
	C478.654785,280.690063 476.223877,279.714386 474.614471,278.951752 
	C473.339691,278.347717 472.433258,276.951141 471.386475,275.883667 
	C467.058838,271.470276 467.066559,270.648865 471.704468,265.997986 
z"/>
<path fill="#DDDDDD" opacity="1.000000" stroke="none" 
	d="
M412.003601,345.002411 
	C410.337158,343.167816 408.700165,341.299377 406.990479,339.500031 
	C402.665253,334.947968 403.534637,331.786499 410.353271,329.385681 
	C409.606262,331.418915 408.995117,333.082275 408.108307,335.495911 
	C410.243134,334.743011 411.663177,334.242157 413.149506,333.717957 
	C413.622986,340.873505 413.622986,340.873505 419.805878,337.438080 
	C419.322571,342.429993 416.937408,344.492218 412.373932,344.987701 
	C411.994751,344.994751 412.000000,345.000000 412.003601,345.002411 
z"/>
<path fill="#DDDDDD" opacity="1.000000" stroke="none" 
	d="
M374.425842,362.824036 
	C375.590149,359.476105 377.189575,357.042206 381.354248,357.631317 
	C380.670654,359.534973 380.103851,361.113373 379.295074,363.365540 
	C381.711853,363.126709 383.401825,362.959686 384.905457,362.811096 
	C385.111267,365.981415 385.309021,369.027557 385.546997,372.693481 
	C380.241760,371.633545 377.655090,367.007599 374.425842,362.824036 
z"/>
<path fill="#DDDDDD" opacity="1.000000" stroke="none" 
	d="
M427.667908,329.062744 
	C428.241760,329.481140 428.494019,329.985382 428.870758,330.741852 
	C424.818420,335.993805 423.614502,336.118225 419.145844,331.616150 
	C416.958710,329.412689 414.995361,326.987122 412.930725,324.662079 
	C413.478516,324.092163 414.026276,323.522217 414.574066,322.952301 
	C416.538116,324.623596 418.719055,326.102905 420.411560,328.014587 
	C422.549622,330.429565 424.681000,330.919128 427.667908,329.062744 
z"/>
<path fill="#EC625C" opacity="1.000000" stroke="none" 
	d="
M714.249512,314.419739 
	C714.496033,313.966095 714.664062,313.939117 714.815857,313.874207 
	C718.439514,312.324432 720.582397,314.458008 722.126465,317.177032 
	C722.585815,317.986145 721.761597,319.524048 721.525513,320.727997 
	C719.331726,320.223541 717.138000,319.719086 714.637451,319.101715 
	C714.274963,317.602112 714.219177,316.215393 714.249512,314.419739 
z"/>
<path fill="#E0E0E0" opacity="1.000000" stroke="none" 
	d="
M529.981812,500.023376 
	C531.038208,500.574738 531.823303,500.896851 532.483276,501.387207 
	C535.834473,503.877136 537.789001,507.087585 536.176514,511.263306 
	C534.928223,514.495972 532.305115,516.192322 528.647461,515.611450 
	C524.803284,515.000977 520.740417,510.816406 520.415955,507.212860 
	C520.099915,503.703156 525.465332,499.438904 529.981812,500.023376 
z"/>
<path fill="#DDDDDD" opacity="1.000000" stroke="none" 
	d="
M531.617310,493.456543 
	C536.743042,487.403961 539.614685,487.483551 544.291321,493.413300 
	C545.483154,494.924530 546.811890,496.327881 548.535706,498.306488 
	C546.123840,498.760437 544.280884,499.107300 542.059387,499.525391 
	C542.183044,501.025787 542.306641,502.525330 542.433289,504.062164 
	C538.275024,503.731171 532.763550,498.461090 531.617310,493.456543 
z"/>
<path fill="#DDDDDD" opacity="1.000000" stroke="none" 
	d="
M519.708801,523.342651 
	C519.300110,524.716309 518.877502,526.504578 518.009399,526.756287 
	C516.557861,527.177185 514.821716,526.616882 512.705078,526.423950 
	C513.331787,528.586548 513.838135,530.333984 514.344482,532.081421 
	C513.907166,532.437988 513.469788,532.794556 513.032471,533.151123 
	C509.679169,529.799500 506.325867,526.447937 502.972595,523.096375 
	C503.252655,522.536377 503.532745,521.976318 503.812836,521.416321 
	C506.483673,521.293091 509.154510,521.169861 512.216553,521.028564 
	C511.561981,519.426453 510.934052,517.889587 510.306091,516.352722 
	C510.655914,516.010925 511.005737,515.669128 511.355560,515.327332 
	C514.068604,517.907104 516.781616,520.486877 519.708801,523.342651 
z"/>
<path fill="#DDDDDD" opacity="1.000000" stroke="none" 
	d="
M552.585815,484.678223 
	C553.194580,483.222443 554.066528,481.901093 554.938477,480.579773 
	C556.474854,482.053040 559.457275,483.750092 559.270569,484.956726 
	C558.755005,488.288269 556.593689,490.933014 552.506592,491.011566 
	C547.983215,491.098511 544.572449,488.494293 544.056702,484.297668 
	C543.509155,479.843048 544.728027,478.033905 549.452209,476.798096 
	C549.414307,480.205902 544.525391,483.900238 549.584412,486.749451 
	C550.999023,487.546112 553.002136,487.297760 554.735229,487.528748 
	C554.849854,487.049927 554.964417,486.571075 555.078979,486.092224 
	C554.335632,485.665680 553.592346,485.239136 552.585815,484.678223 
z"/>
<path fill="#DDDDDD" opacity="1.000000" stroke="none" 
	d="
M507.882874,538.140747 
	C505.039185,541.800476 501.545563,541.687195 498.225159,540.161499 
	C494.886688,538.627563 493.239960,535.479431 494.169464,531.892944 
	C494.720703,529.766052 496.540375,527.967896 498.545624,526.406738 
	C499.532867,530.156982 494.487579,533.854858 499.534607,536.711487 
	C500.966156,537.521729 502.972351,537.316589 504.715027,537.577087 
	C504.835144,537.108215 504.955292,536.639343 505.075409,536.170471 
	C503.986053,535.424255 502.896698,534.678040 500.431610,532.989380 
	C502.950745,532.103027 504.987183,530.629395 506.099030,531.145996 
	C508.772614,532.388000 510.766815,534.631104 507.882874,538.140747 
z"/>
<path fill="#EC625C" opacity="1.000000" stroke="none" 
	d="
M702.407898,347.160645 
	C702.858032,346.506256 703.647339,345.810577 704.778076,345.078064 
	C704.328674,345.733978 703.537842,346.426697 702.407898,347.160645 
z"/>
<path fill="#EC635D" opacity="1.000000" stroke="none" 
	d="
M558.990540,688.000000 
	C558.990540,696.456970 558.990540,704.413940 558.990540,712.990540 
	C549.224121,712.990540 539.901428,713.577820 530.687561,712.827881 
	C521.179626,712.054016 513.407593,714.006287 507.779968,722.131287 
	C507.150299,723.040466 506.089386,723.650940 504.626770,724.923462 
	C504.626770,696.411621 504.626770,668.592834 504.626770,640.310425 
	C522.455994,640.310425 540.330933,640.310425 558.990540,640.310425 
	C558.990540,655.989929 558.990540,671.744934 558.990540,688.000000 
z"/>
<path fill="#E0E0E0" opacity="1.000000" stroke="none" 
	d="
M387.787292,636.210388 
	C388.144257,636.061890 388.336639,636.090027 388.431244,636.201294 
	C389.565826,637.535828 390.777863,638.822815 391.725586,640.280884 
	C391.897217,640.544922 390.969849,641.523438 390.549835,642.172058 
	C389.179474,641.265259 387.809082,640.358459 386.212524,639.209106 
	C386.516663,638.119568 387.046967,637.272644 387.787292,636.210388 
z"/>
<path fill="#EC625C" opacity="1.000000" stroke="none" 
	d="
M684.947144,775.926941 
	C684.721558,782.545898 684.473206,782.704041 676.101685,781.610474 
	C676.866272,778.227783 673.167969,773.564636 679.017212,771.857178 
	C681.410339,771.158569 685.482239,770.210144 684.947144,775.926941 
z"/>
<path fill="#E06065" opacity="1.000000" stroke="none" 
	d="
M660.179382,779.068115 
	C660.179443,780.044189 660.179688,780.541260 660.179504,781.038391 
	C660.176086,789.607117 660.176025,789.607117 650.513000,788.591980 
	C650.513000,784.128174 650.318909,779.551575 650.661621,775.015503 
	C650.738708,773.994751 652.555664,772.640320 653.810120,772.287781 
	C655.489075,771.815979 657.400391,772.171082 659.853027,772.171082 
	C659.969421,774.460083 660.074402,776.524658 660.179382,779.068115 
z"/>
<path fill="#E06065" opacity="1.000000" stroke="none" 
	d="
M378.626099,788.601257 
	C377.932678,782.330933 379.121124,781.102295 384.590485,781.121887 
	C387.275330,781.131531 388.525940,781.912720 388.490997,784.788086 
	C388.456177,787.656067 387.498627,789.194763 384.441620,789.002075 
	C382.628052,788.887695 380.806946,788.892517 378.626099,788.601257 
z"/>
<path fill="#E06065" opacity="1.000000" stroke="none" 
	d="
M709.465027,772.674194 
	C710.487000,779.553162 710.005371,780.046875 703.921570,779.864014 
	C701.644714,779.795593 699.561646,779.397400 700.315186,776.687683 
	C700.776428,775.029053 702.246460,773.165039 703.765686,772.426208 
	C705.217590,771.720154 707.319946,772.351501 709.465027,772.674194 
z"/>
<path fill="#E06065" opacity="1.000000" stroke="none" 
	d="
M424.452881,772.198364 
	C426.347076,772.181885 427.819061,772.181885 430.877533,772.181885 
	C429.748383,775.199036 429.434723,778.790283 427.929413,779.389893 
	C425.865631,780.211975 421.655579,779.616028 420.608643,778.089355 
	C419.042145,775.804871 419.977997,772.518799 424.452881,772.198364 
z"/>
<path fill="#E2605C" opacity="1.000000" stroke="none" 
	d="
M560.086548,772.201172 
	C561.831665,772.276550 563.129700,772.354980 565.110718,772.474670 
	C565.110718,777.084839 565.304199,781.518616 564.967407,785.911804 
	C564.888489,786.940674 563.140564,788.389160 561.937927,788.661499 
	C559.919495,789.118530 557.722351,788.786560 554.906250,788.786560 
	C554.906250,783.921021 554.586975,779.464294 555.122803,775.112854 
	C555.262939,773.975159 558.061707,773.164856 560.086548,772.201172 
z"/>
<path fill="#E06065" opacity="1.000000" stroke="none" 
	d="
M634.873657,772.815308 
	C635.847961,779.886047 635.243591,780.335327 626.497864,779.538757 
	C623.359375,772.138245 627.809631,771.482971 634.873657,772.815308 
z"/>
</svg>